solid ASCII
  facet normal 0.000000e+00 -1.000000e+00 0.000000e+00
    outer loop
      vertex   5.700000e-01 -2.000000e-01 3.000000e-01
      vertex   -1.120000e+00 -2.000000e-01 5.000000e-01
      vertex   -5.700000e-01 -2.000000e-01 3.000000e-01
    endloop
  endfacet
  facet normal 0.000000e+00 -1.000000e+00 0.000000e+00
    outer loop
      vertex   -5.700000e-01 -2.000000e-01 3.000000e-01
      vertex   -1.120000e+00 -2.000000e-01 5.000000e-01
      vertex   -6.700000e-01 -2.000000e-01 3.000000e-01
    endloop
  endfacet
  facet normal -0.000000e+00 -1.000000e+00 -0.000000e+00
    outer loop
      vertex   -5.700000e-01 -2.000000e-01 3.000000e-01
      vertex   -6.700000e-01 -2.000000e-01 3.000000e-01
      vertex   -2.552218e-01 -2.000000e-01 -2.529888e-01
    endloop
  endfacet
  facet normal -0.000000e+00 -1.000000e+00 0.000000e+00
    outer loop
      vertex   -2.552218e-01 -2.000000e-01 -2.529888e-01
      vertex   -6.700000e-01 -2.000000e-01 3.000000e-01
      vertex   -3.000000e-01 -2.000000e-01 -3.500000e-01
    endloop
  endfacet
  facet normal 0.000000e+00 -1.000000e+00 -0.000000e+00
    outer loop
      vertex   -2.552218e-01 -2.000000e-01 -2.529888e-01
      vertex   -3.000000e-01 -2.000000e-01 -3.500000e-01
      vertex   0.000000e+00 -2.000000e-01 -2.500000e-01
    endloop
  endfacet
  facet normal 0.000000e+00 -1.000000e+00 -0.000000e+00
    outer loop
      vertex   0.000000e+00 -2.000000e-01 -2.500000e-01
      vertex   -3.000000e-01 -2.000000e-01 -3.500000e-01
      vertex   3.000000e-01 -2.000000e-01 -3.500000e-01
    endloop
  endfacet
  facet normal 0.000000e+00 -1.000000e+00 0.000000e+00
    outer loop
      vertex   0.000000e+00 -2.000000e-01 -2.500000e-01
      vertex   3.000000e-01 -2.000000e-01 -3.500000e-01
      vertex   2.552218e-01 -2.000000e-01 -2.529888e-01
    endloop
  endfacet
  facet normal 0.000000e+00 -1.000000e+00 0.000000e+00
    outer loop
      vertex   2.552218e-01 -2.000000e-01 -2.529888e-01
      vertex   3.000000e-01 -2.000000e-01 -3.500000e-01
      vertex   6.700000e-01 -2.000000e-01 3.000000e-01
    endloop
  endfacet
  facet normal 0.000000e+00 -1.000000e+00 0.000000e+00
    outer loop
      vertex   2.552218e-01 -2.000000e-01 -2.529888e-01
      vertex   6.700000e-01 -2.000000e-01 3.000000e-01
      vertex   5.700000e-01 -2.000000e-01 3.000000e-01
    endloop
  endfacet
  facet normal 0.000000e+00 -1.000000e+00 0.000000e+00
    outer loop
      vertex   5.700000e-01 -2.000000e-01 3.000000e-01
      vertex   6.700000e-01 -2.000000e-01 3.000000e-01
      vertex   1.120000e+00 -2.000000e-01 5.000000e-01
    endloop
  endfacet
  facet normal 0.000000e+00 -1.000000e+00 0.000000e+00
    outer loop
      vertex   5.700000e-01 -2.000000e-01 3.000000e-01
      vertex   1.120000e+00 -2.000000e-01 5.000000e-01
      vertex   -1.120000e+00 -2.000000e-01 5.000000e-01
    endloop
  endfacet
  facet normal 0.000000e+00 -1.000000e+00 0.000000e+00
    outer loop
      vertex   -1.120000e+00 -2.000000e-01 5.000000e-01
      vertex   -1.120000e+00 -2.000000e-01 3.000000e-01
      vertex   -6.700000e-01 -2.000000e-01 3.000000e-01
    endloop
  endfacet
  facet normal 0.000000e+00 -1.000000e+00 0.000000e+00
    outer loop
      vertex   6.700000e-01 -2.000000e-01 3.000000e-01
      vertex   1.120000e+00 -2.000000e-01 3.000000e-01
      vertex   1.120000e+00 -2.000000e-01 5.000000e-01
    endloop
  endfacet
  facet normal -8.690647e-01 0.000000e+00 4.946984e-01
    outer loop
      vertex   5.700000e-01 2.000000e-01 3.000000e-01
      vertex   2.552218e-01 2.000000e-01 -2.529888e-01
      vertex   5.700000e-01 -2.000000e-01 3.000000e-01
    endloop
  endfacet
  facet normal -8.690647e-01 0.000000e+00 4.946984e-01
    outer loop
      vertex   5.700000e-01 -2.000000e-01 3.000000e-01
      vertex   2.552218e-01 2.000000e-01 -2.529888e-01
      vertex   2.552218e-01 -2.000000e-01 -2.529888e-01
    endloop
  endfacet
  facet normal 1.170965e-02 0.000000e+00 9.999314e-01
    outer loop
      vertex   2.552218e-01 2.000000e-01 -2.529888e-01
      vertex   0.000000e+00 2.000000e-01 -2.500000e-01
      vertex   2.552218e-01 -2.000000e-01 -2.529888e-01
    endloop
  endfacet
  facet normal 1.170965e-02 0.000000e+00 9.999314e-01
    outer loop
      vertex   2.552218e-01 -2.000000e-01 -2.529888e-01
      vertex   0.000000e+00 2.000000e-01 -2.500000e-01
      vertex   0.000000e+00 -2.000000e-01 -2.500000e-01
    endloop
  endfacet
  facet normal -1.170965e-02 0.000000e+00 9.999314e-01
    outer loop
      vertex   0.000000e+00 2.000000e-01 -2.500000e-01
      vertex   -2.552218e-01 2.000000e-01 -2.529888e-01
      vertex   0.000000e+00 -2.000000e-01 -2.500000e-01
    endloop
  endfacet
  facet normal -1.170965e-02 0.000000e+00 9.999314e-01
    outer loop
      vertex   0.000000e+00 -2.000000e-01 -2.500000e-01
      vertex   -2.552218e-01 2.000000e-01 -2.529888e-01
      vertex   -2.552218e-01 -2.000000e-01 -2.529888e-01
    endloop
  endfacet
  facet normal 8.690647e-01 0.000000e+00 4.946984e-01
    outer loop
      vertex   -2.552218e-01 2.000000e-01 -2.529888e-01
      vertex   -5.700000e-01 2.000000e-01 3.000000e-01
      vertex   -2.552218e-01 -2.000000e-01 -2.529888e-01
    endloop
  endfacet
  facet normal 8.690647e-01 0.000000e+00 4.946984e-01
    outer loop
      vertex   -2.552218e-01 -2.000000e-01 -2.529888e-01
      vertex   -5.700000e-01 2.000000e-01 3.000000e-01
      vertex   -5.700000e-01 -2.000000e-01 3.000000e-01
    endloop
  endfacet
  facet normal 0.000000e+00 0.000000e+00 -1.000000e+00
    outer loop
      vertex   -5.700000e-01 2.000000e-01 3.000000e-01
      vertex   5.700000e-01 2.000000e-01 3.000000e-01
      vertex   -5.700000e-01 -2.000000e-01 3.000000e-01
    endloop
  endfacet
  facet normal 0.000000e+00 0.000000e+00 -1.000000e+00
    outer loop
      vertex   -5.700000e-01 -2.000000e-01 3.000000e-01
      vertex   5.700000e-01 2.000000e-01 3.000000e-01
      vertex   5.700000e-01 -2.000000e-01 3.000000e-01
    endloop
  endfacet
  facet normal -1.000000e+00 -0.000000e+00 -0.000000e+00
    outer loop
      vertex   -1.120000e+00 2.000000e-01 5.000000e-01
      vertex   -1.120000e+00 2.000000e-01 3.000000e-01
      vertex   -1.120000e+00 -2.000000e-01 5.000000e-01
    endloop
  endfacet
  facet normal -1.000000e+00 0.000000e+00 0.000000e+00
    outer loop
      vertex   -1.120000e+00 -2.000000e-01 5.000000e-01
      vertex   -1.120000e+00 2.000000e-01 3.000000e-01
      vertex   -1.120000e+00 -2.000000e-01 3.000000e-01
    endloop
  endfacet
  facet normal -1.233581e-16 -0.000000e+00 -1.000000e+00
    outer loop
      vertex   -1.120000e+00 2.000000e-01 3.000000e-01
      vertex   -6.700000e-01 2.000000e-01 3.000000e-01
      vertex   -1.120000e+00 -2.000000e-01 3.000000e-01
    endloop
  endfacet
  facet normal -1.233581e-16 0.000000e+00 -1.000000e+00
    outer loop
      vertex   -1.120000e+00 -2.000000e-01 3.000000e-01
      vertex   -6.700000e-01 2.000000e-01 3.000000e-01
      vertex   -6.700000e-01 -2.000000e-01 3.000000e-01
    endloop
  endfacet
  facet normal -8.690647e-01 -0.000000e+00 -4.946984e-01
    outer loop
      vertex   -6.700000e-01 2.000000e-01 3.000000e-01
      vertex   -3.000000e-01 2.000000e-01 -3.500000e-01
      vertex   -6.700000e-01 -2.000000e-01 3.000000e-01
    endloop
  endfacet
  facet normal -8.690647e-01 0.000000e+00 -4.946984e-01
    outer loop
      vertex   -6.700000e-01 -2.000000e-01 3.000000e-01
      vertex   -3.000000e-01 2.000000e-01 -3.500000e-01
      vertex   -3.000000e-01 -2.000000e-01 -3.500000e-01
    endloop
  endfacet
  facet normal 0.000000e+00 0.000000e+00 -1.000000e+00
    outer loop
      vertex   -3.000000e-01 2.000000e-01 -3.500000e-01
      vertex   3.000000e-01 2.000000e-01 -3.500000e-01
      vertex   -3.000000e-01 -2.000000e-01 -3.500000e-01
    endloop
  endfacet
  facet normal 0.000000e+00 0.000000e+00 -1.000000e+00
    outer loop
      vertex   -3.000000e-01 -2.000000e-01 -3.500000e-01
      vertex   3.000000e-01 2.000000e-01 -3.500000e-01
      vertex   3.000000e-01 -2.000000e-01 -3.500000e-01
    endloop
  endfacet
  facet normal 8.690647e-01 0.000000e+00 -4.946984e-01
    outer loop
      vertex   3.000000e-01 2.000000e-01 -3.500000e-01
      vertex   6.700000e-01 2.000000e-01 3.000000e-01
      vertex   3.000000e-01 -2.000000e-01 -3.500000e-01
    endloop
  endfacet
  facet normal 8.690647e-01 0.000000e+00 -4.946984e-01
    outer loop
      vertex   3.000000e-01 -2.000000e-01 -3.500000e-01
      vertex   6.700000e-01 2.000000e-01 3.000000e-01
      vertex   6.700000e-01 -2.000000e-01 3.000000e-01
    endloop
  endfacet
  facet normal 2.467162e-16 0.000000e+00 -1.000000e+00
    outer loop
      vertex   6.700000e-01 2.000000e-01 3.000000e-01
      vertex   1.120000e+00 2.000000e-01 3.000000e-01
      vertex   6.700000e-01 -2.000000e-01 3.000000e-01
    endloop
  endfacet
  facet normal 2.467162e-16 0.000000e+00 -1.000000e+00
    outer loop
      vertex   6.700000e-01 -2.000000e-01 3.000000e-01
      vertex   1.120000e+00 2.000000e-01 3.000000e-01
      vertex   1.120000e+00 -2.000000e-01 3.000000e-01
    endloop
  endfacet
  facet normal 1.000000e+00 0.000000e+00 -0.000000e+00
    outer loop
      vertex   1.120000e+00 2.000000e-01 3.000000e-01
      vertex   1.120000e+00 2.000000e-01 5.000000e-01
      vertex   1.120000e+00 -2.000000e-01 3.000000e-01
    endloop
  endfacet
  facet normal 1.000000e+00 0.000000e+00 0.000000e+00
    outer loop
      vertex   1.120000e+00 -2.000000e-01 3.000000e-01
      vertex   1.120000e+00 2.000000e-01 5.000000e-01
      vertex   1.120000e+00 -2.000000e-01 5.000000e-01
    endloop
  endfacet
  facet normal 0.000000e+00 0.000000e+00 1.000000e+00
    outer loop
      vertex   1.120000e+00 2.000000e-01 5.000000e-01
      vertex   -1.120000e+00 2.000000e-01 5.000000e-01
      vertex   1.120000e+00 -2.000000e-01 5.000000e-01
    endloop
  endfacet
  facet normal 0.000000e+00 0.000000e+00 1.000000e+00
    outer loop
      vertex   1.120000e+00 -2.000000e-01 5.000000e-01
      vertex   -1.120000e+00 2.000000e-01 5.000000e-01
      vertex   -1.120000e+00 -2.000000e-01 5.000000e-01
    endloop
  endfacet
  facet normal 0.000000e+00 1.000000e+00 -0.000000e+00
    outer loop
      vertex   -5.700000e-01 2.000000e-01 3.000000e-01
      vertex   -1.120000e+00 2.000000e-01 5.000000e-01
      vertex   5.700000e-01 2.000000e-01 3.000000e-01
    endloop
  endfacet
  facet normal 0.000000e+00 1.000000e+00 -0.000000e+00
    outer loop
      vertex   5.700000e-01 2.000000e-01 3.000000e-01
      vertex   -1.120000e+00 2.000000e-01 5.000000e-01
      vertex   1.120000e+00 2.000000e-01 5.000000e-01
    endloop
  endfacet
  facet normal -0.000000e+00 1.000000e+00 0.000000e+00
    outer loop
      vertex   5.700000e-01 2.000000e-01 3.000000e-01
      vertex   1.120000e+00 2.000000e-01 5.000000e-01
      vertex   6.700000e-01 2.000000e-01 3.000000e-01
    endloop
  endfacet
  facet normal 0.000000e+00 1.000000e+00 0.000000e+00
    outer loop
      vertex   6.700000e-01 2.000000e-01 3.000000e-01
      vertex   1.120000e+00 2.000000e-01 5.000000e-01
      vertex   1.120000e+00 2.000000e-01 3.000000e-01
    endloop
  endfacet
  facet normal 0.000000e+00 1.000000e+00 0.000000e+00
    outer loop
      vertex   -1.120000e+00 2.000000e-01 5.000000e-01
      vertex   -5.700000e-01 2.000000e-01 3.000000e-01
      vertex   -6.700000e-01 2.000000e-01 3.000000e-01
    endloop
  endfacet
  facet normal -0.000000e+00 1.000000e+00 0.000000e+00
    outer loop
      vertex   -6.700000e-01 2.000000e-01 3.000000e-01
      vertex   -5.700000e-01 2.000000e-01 3.000000e-01
      vertex   -2.552218e-01 2.000000e-01 -2.529888e-01
    endloop
  endfacet
  facet normal 0.000000e+00 1.000000e+00 0.000000e+00
    outer loop
      vertex   -6.700000e-01 2.000000e-01 3.000000e-01
      vertex   -2.552218e-01 2.000000e-01 -2.529888e-01
      vertex   -3.000000e-01 2.000000e-01 -3.500000e-01
    endloop
  endfacet
  facet normal 0.000000e+00 1.000000e+00 0.000000e+00
    outer loop
      vertex   -3.000000e-01 2.000000e-01 -3.500000e-01
      vertex   -2.552218e-01 2.000000e-01 -2.529888e-01
      vertex   0.000000e+00 2.000000e-01 -2.500000e-01
    endloop
  endfacet
  facet normal 0.000000e+00 1.000000e+00 0.000000e+00
    outer loop
      vertex   -3.000000e-01 2.000000e-01 -3.500000e-01
      vertex   0.000000e+00 2.000000e-01 -2.500000e-01
      vertex   3.000000e-01 2.000000e-01 -3.500000e-01
    endloop
  endfacet
  facet normal 0.000000e+00 1.000000e+00 0.000000e+00
    outer loop
      vertex   3.000000e-01 2.000000e-01 -3.500000e-01
      vertex   0.000000e+00 2.000000e-01 -2.500000e-01
      vertex   2.552218e-01 2.000000e-01 -2.529888e-01
    endloop
  endfacet
  facet normal 0.000000e+00 1.000000e+00 -0.000000e+00
    outer loop
      vertex   3.000000e-01 2.000000e-01 -3.500000e-01
      vertex   2.552218e-01 2.000000e-01 -2.529888e-01
      vertex   6.700000e-01 2.000000e-01 3.000000e-01
    endloop
  endfacet
  facet normal 0.000000e+00 1.000000e+00 0.000000e+00
    outer loop
      vertex   6.700000e-01 2.000000e-01 3.000000e-01
      vertex   2.552218e-01 2.000000e-01 -2.529888e-01
      vertex   5.700000e-01 2.000000e-01 3.000000e-01
    endloop
  endfacet
  facet normal 0.000000e+00 1.000000e+00 0.000000e+00
    outer loop
      vertex   -6.700000e-01 2.000000e-01 3.000000e-01
      vertex   -1.120000e+00 2.000000e-01 3.000000e-01
      vertex   -1.120000e+00 2.000000e-01 5.000000e-01
    endloop
  endfacet
endsolid
